<svg width="1455" height="32" viewBox="0 0 1455 32" fill="none" xmlns="http://www.w3.org/2000/svg">
<g clip-path="url(#clip0_8_166)">
<g clip-path="url(#clip1_8_166)">
<path d="M312.655 24.9701C444.803 23.4497 572.937 20.0853 741.845 11.8356C807.804 8.56309 913.205 3.83227 965.796 2.52953C1018.39 1.22678 1083.01 0.40625 1134.05 0.95581C1156.78 1.19721 1184.41 1.23136 1245.7 2.64076C1306.31 4.12616 1375.4 6.59903 1422.65 8.55419C1514.69 12.3931 1634.14 13.7166 1721.27 13.7627C1913.82 13.8781 2074.26 5.54094 2074.26 5.54094L2074.28 24.0909L-154.213 27.3852L-154.226 18.7102C-154.226 18.7102 -39.4508 23.3906 82.4504 24.7854C203.46 26.1065 260.063 25.5728 312.655 24.9701Z" fill="#F7F7F7"/>
</g>
</g>
<defs>
<clipPath id="clip0_8_166">
<rect width="1459.31" height="30.0267" fill="white" transform="translate(0 2.15723) rotate(-0.0846978)"/>
</clipPath>
<clipPath id="clip1_8_166">
<rect width="2228.5" height="25" fill="white" transform="matrix(-0.999999 0.00147825 0.00147825 0.999999 2074.25 -0.909058)"/>
</clipPath>
</defs>
</svg>
