<svg width="51" height="45" viewBox="0 0 51 45" fill="#FFFFFF" xmlns="http://www.w3.org/2000/svg">
<path d="M3.18446 0C1.40116 0 0 1.40116 0 3.18446C0 4.96776 1.40116 6.36893 3.18446 6.36893C4.96776 6.36893 6.36893 4.96776 6.36893 3.18446C6.36893 1.40116 4.96776 0 3.18446 0ZM12.7379 0V6.36893H50.9514V0H12.7379ZM3.18446 12.7379C1.40116 12.7379 0 14.139 0 15.9223C0 17.7056 1.40116 19.1068 3.18446 19.1068C4.96776 19.1068 6.36893 17.7056 6.36893 15.9223C6.36893 14.139 4.96776 12.7379 3.18446 12.7379ZM12.7379 12.7379V19.1068H50.9514V12.7379H12.7379ZM3.18446 25.4757C1.40116 25.4757 0 26.8769 0 28.6602C0 30.4435 1.40116 31.8446 3.18446 31.8446C4.96776 31.8446 6.36893 30.4435 6.36893 28.6602C6.36893 26.8769 4.96776 25.4757 3.18446 25.4757ZM12.7379 25.4757V31.8446H50.9514V25.4757H12.7379ZM3.18446 38.2136C1.40116 38.2136 0 39.6147 0 41.398C0 43.1813 1.40116 44.5825 3.18446 44.5825C4.96776 44.5825 6.36893 43.1813 6.36893 41.398C6.36893 39.6147 4.96776 38.2136 3.18446 38.2136ZM12.7379 38.2136V44.5825H50.9514V38.2136H12.7379Z" fill="url(#paint0_linear_8_280)"/>
<defs>
<linearGradient id="paint0_linear_8_280" x1="25.4757" y1="-2.10732e-08" x2="27" y2="101" gradientUnits="userSpaceOnUse">
<stop stop-color="white"/>
<stop offset="1" stop-color="#052404"/>
</linearGradient>
</defs>
</svg>
