<svg width="1463" height="25" viewBox="0 0 1463 25" fill="none" xmlns="http://www.w3.org/2000/svg">
<g clip-path="url(#clip0_20_901)">
<g clip-path="url(#clip1_20_901)">
<path   d="M1925.3 23.275C1728.25 21.95 1537.19 18.775 1285.31 10.775C1186.95 7.60001 1029.78 3.02501 951.36 1.80001C872.94 0.575006 776.576 -0.149994 700.481 0.475006C666.588 0.750006 625.384 0.825006 534.004 2.32501C443.621 3.90001 340.611 6.47501 270.166 8.50001C132.93 12.475 -45.1772 13.975 -175.103 14.15C-462.201 14.55 -701.45 6.45001 -701.45 6.45001V25H2621.45V16.325C2621.45 16.325 2450.32 21.175 2268.56 22.75C2088.12 24.25 2003.72 23.8 1925.3 23.275Z" fill="#F7F7F7"/>
</g>
</g>
<defs>
<clipPath id="clip0_20_901">
<rect width="1463" height="25" fill="white"/>
</clipPath>
<clipPath id="clip1_20_901">
<rect width="3322.89" height="25" fill="white" transform="translate(-701.45)"/>
</clipPath>
</defs>
</svg>
