<svg width="1472" height="30" viewBox="0 0 1472 30" fill="none" xmlns="http://www.w3.org/2000/svg">
<path d="M-81.075 30.2668C51.0714 28.6239 179.202 25.1407 348.103 16.7343C414.058 13.4006 519.455 8.57205 572.045 7.22053C624.634 5.86901 689.259 4.98853 740.293 5.49076C763.024 5.71107 790.658 5.7196 851.945 7.07216C912.564 8.50133 981.653 10.9101 1028.9 12.8215C1120.95 16.575 1240.4 17.7877 1327.53 17.753C1520.08 17.6898 1680.51 9.20386 1680.51 9.20386L1680.55 27.7538L-547.94 33.115L-547.961 24.44C-547.961 24.44 -433.182 29.0139 -311.28 30.2956C-190.269 31.5045 -133.666 30.9183 -81.075 30.2668Z" fill="white"/>
</svg>
