<svg width="9" height="15" viewBox="0 0 9 15" fill="none" xmlns="http://www.w3.org/2000/svg">
<path d="M0.341317 0C0.143713 0 0 0.149813 0 0.355805V14.6442C0 14.8502 0.143713 15 0.341317 15H8.65868C8.85629 15 9 14.8502 9 14.6442V0.355805C9 0.149813 8.85629 0 8.65868 0L0.341317 0ZM1.79641 1.87266H7.18563V11.236H1.79641V1.87266ZM4.49102 12.1723C4.99401 12.1723 5.38922 12.5843 5.38922 13.1086C5.38922 13.633 4.99401 14.0449 4.49102 14.0449C3.98802 14.0449 3.59281 13.633 3.59281 13.1086C3.59281 12.5843 3.98802 12.1723 4.49102 12.1723Z" fill="#025700"/>
</svg>
