<svg width="1463" height="155" viewBox="0 0 1463 155" fill="none" xmlns="http://www.w3.org/2000/svg">
<path d="M617.178 144.399C650.239 148.302 692.515 143.775 727.624 136.126C762.147 128.476 831.34 99.4411 874.64 80.3964C985.525 30.1309 1070.22 10.93 1156.39 2.81262C1190.91 -0.465561 1227.63 -2.65102 1307.65 6.71523C1387.66 16.0815 1463 46.6779 1463 46.6779V154.546H0V107.246C0 107.246 105.325 56.3564 231.716 59.6346C289.06 60.7273 367.469 70.0935 427.738 94.6019C458.751 107.246 504.099 123.013 544.328 132.379C584.118 142.214 602.111 142.838 617.178 144.399Z" fill="#F7F7F7"/>
</svg>
